<svg width="20" height="14" viewBox="0 0 20 14" fill="none" xmlns="http://www.w3.org/2000/svg">
<path d="M19.9551 6.40516C19.9212 6.33738 19.218 4.76998 17.6421 3.20258C16.0663 1.63518 13.677 0 10 0C6.32297 0 3.81513 1.73685 2.35787 3.20258C0.90061 4.66831 0.0787846 6.33738 0.0448949 6.40516C0.0153211 6.46887 0 6.53826 0 6.6085C0 6.67873 0.0153211 6.74813 0.0448949 6.81183C0.0787846 6.87961 0.781996 8.44701 2.35787 10.0144C3.93374 11.5818 6.32297 13.217 10 13.217C13.677 13.217 16.1849 11.4801 17.6421 10.0144C19.0994 8.54868 19.9212 6.87961 19.9551 6.81183C19.9847 6.74813 20 6.67873 20 6.6085C20 6.53826 19.9847 6.46887 19.9551 6.40516ZM10 12.2003C7.33966 12.2003 5.01821 11.2344 3.10344 9.32815C2.29604 8.52815 1.61345 7.61136 1.07853 6.6085C1.61345 5.60563 2.29604 4.68884 3.10344 3.88885C5.01821 1.98255 7.33966 1.01669 10 1.01669C12.6603 1.01669 14.9818 1.98255 16.8966 3.88885C17.704 4.68884 18.3866 5.60563 18.9215 6.6085C18.3792 7.64213 15.6765 12.2003 10 12.2003ZM10 2.71118C9.22918 2.71118 8.47568 2.93975 7.83477 3.36799C7.19386 3.79624 6.69433 4.40491 6.39935 5.11706C6.10437 5.8292 6.02719 6.61282 6.17757 7.36882C6.32795 8.12483 6.69913 8.81927 7.24418 9.36432C7.78923 9.90937 8.48367 10.2805 9.23967 10.4309C9.99568 10.5813 10.7793 10.5041 11.4914 10.2091C12.2036 9.91417 12.8123 9.41464 13.2405 8.77373C13.6687 8.13282 13.8973 7.37931 13.8973 6.6085C13.8973 5.57486 13.4867 4.58357 12.7558 3.85268C12.0249 3.12179 11.0336 2.71118 10 2.71118ZM10 9.48912C9.43027 9.48912 8.87333 9.32018 8.39961 9.00365C7.92589 8.68712 7.55668 8.23723 7.33865 7.71086C7.12062 7.1845 7.06357 6.6053 7.17472 6.04651C7.28587 5.48773 7.56023 4.97445 7.96309 4.57159C8.36595 4.16872 8.87923 3.89437 9.43802 3.78322C9.9968 3.67207 10.576 3.72912 11.1024 3.94714C11.6287 4.16517 12.0786 4.53439 12.3952 5.00811C12.7117 5.48182 12.8806 6.03876 12.8806 6.6085C12.8784 7.3718 12.5742 8.1032 12.0344 8.64294C11.4947 9.18268 10.7633 9.48689 10 9.48912Z" fill="#95969B"/>
</svg>
