<svg width="20" height="20" viewBox="0 0 20 20" fill="none" xmlns="http://www.w3.org/2000/svg">
<path fill-rule="evenodd" clip-rule="evenodd" d="M0 10.0909C0 9.71213 0.131682 9.34883 0.366076 9.08097C0.60047 8.81311 0.918377 8.66263 1.24986 8.66263H15.7307L10.3638 2.53231C10.1292 2.26411 9.9973 1.90035 9.9973 1.52106C9.9973 1.14177 10.1292 0.778014 10.3638 0.509815C10.5985 0.241615 10.9168 0.0909424 11.2487 0.0909424C11.5806 0.0909424 11.899 0.241615 12.1336 0.509815L19.6328 9.0797C19.7492 9.21237 19.8415 9.36999 19.9046 9.54352C19.9676 9.71704 20 9.90307 20 10.0909C20 10.2788 19.9676 10.4648 19.9046 10.6384C19.8415 10.8119 19.7492 10.9695 19.6328 11.1022L12.1336 19.6721C11.899 19.9403 11.5806 20.0909 11.2487 20.0909C10.9168 20.0909 10.5985 19.9403 10.3638 19.6721C10.1292 19.4039 9.9973 19.0401 9.9973 18.6608C9.9973 18.2815 10.1292 17.9178 10.3638 17.6496L15.7307 11.5193H1.24986C0.918377 11.5193 0.60047 11.3688 0.366076 11.1009C0.131682 10.8331 0 10.4698 0 10.0909Z" fill="white"/>
</svg>
